<?xml version="1.0" encoding="UTF-8" standalone="no"?>
<!DOCTYPE svg PUBLIC "-//W3C//DTD SVG 1.1//EN" "http://www.w3.org/Graphics/SVG/1.1/DTD/svg11.dtd">
<svg width="100%" height="100%" viewBox="0 0 500 500" version="1.1" xmlns="http://www.w3.org/2000/svg" xmlns:xlink="http://www.w3.org/1999/xlink" xml:space="preserve" xmlns:serif="http://www.serif.com/" style="fill-rule:evenodd;clip-rule:evenodd;stroke-linejoin:round;stroke-miterlimit:2;">
    <g transform="matrix(1.34415,0,0,1.34415,-86.0371,-86.0371)">
        <g transform="matrix(4.16667,0,0,4.16667,358.725,108.147)">
            <path d="M0,68.375C-0.433,69.114 -1.184,69.642 -2.037,69.709C-6.817,70.081 -9.759,68.133 -11.754,66.193C-13.931,64.077 -15.02,60.782 -15.02,56.304L-15.02,0.074C-15.02,-0.14 -14.866,-0.322 -14.656,-0.358L-7.096,-1.659C-6.828,-1.706 -6.583,-1.499 -6.583,-1.227L-6.583,54.944C-6.583,56.337 -6.463,57.484 -6.22,58.391C-5.98,59.297 -5.586,60.023 -5.042,60.569C-4.542,61.068 -1.07,63.153 2.878,62.009C3.246,61.903 3.545,62.329 3.351,62.66L0,68.375Z" style="fill:rgb(188,188,188);fill-rule:nonzero;"/>
        </g>
        <g transform="matrix(4.16667,0,0,4.16667,246.112,353.331)">
            <path d="M0,-46.172C-1.393,-46.172 -2.615,-46.669 -3.673,-47.667C-4.731,-48.666 -5.26,-49.95 -5.26,-51.524C-5.26,-53.095 -4.731,-54.379 -3.673,-55.378C-2.615,-56.376 -1.393,-56.876 0,-56.876C1.39,-56.876 2.615,-56.376 3.673,-55.378C4.731,-54.379 5.263,-53.095 5.263,-51.524C5.263,-49.95 4.731,-48.666 3.673,-47.667C2.615,-46.669 1.39,-46.172 0,-46.172M-9.252,3.627C-7.257,3.627 -5.487,3.584 -3.946,3.492C-3.733,3.48 -3.526,3.466 -3.323,3.45C-1.485,3.31 -0.089,1.763 -0.089,-0.081L-0.089,-11.065C-0.696,-11.368 -1.679,-11.624 -3.039,-11.837C-4.399,-12.048 -6.048,-12.156 -7.983,-12.156C-9.252,-12.156 -10.598,-12.064 -12.018,-11.883C-13.44,-11.702 -14.738,-11.324 -15.918,-10.75C-17.097,-10.175 -18.082,-9.389 -18.868,-8.391C-19.653,-7.392 -20.047,-6.078 -20.047,-4.445C-20.047,-1.42 -19.081,0.68 -17.143,1.859C-15.208,3.039 -12.579,3.627 -9.252,3.627M-17.235,-46.172C-18.625,-46.172 -19.85,-46.669 -20.908,-47.667C-21.966,-48.666 -22.495,-49.95 -22.495,-51.524C-22.495,-53.095 -21.966,-54.379 -20.908,-55.378C-19.85,-56.376 -18.625,-56.876 -17.235,-56.876C-15.845,-56.876 -14.62,-56.376 -13.562,-55.378C-12.504,-54.379 -11.972,-53.095 -11.972,-51.524C-11.972,-49.95 -12.504,-48.666 -13.562,-47.667C-14.62,-46.669 -15.845,-46.172 -17.235,-46.172M-9.978,-38.642C-6.591,-38.642 -3.735,-38.202 -1.406,-37.328C0.923,-36.448 2.796,-35.209 4.218,-33.609C5.638,-32.006 6.653,-30.1 7.257,-27.893C7.862,-25.685 8.164,-23.251 8.164,-20.592L8.164,8.89C7.438,9.011 6.426,9.176 5.125,9.389C3.824,9.6 2.359,9.797 0.726,9.978C-0.907,10.158 -2.675,10.326 -4.58,10.477C-6.485,10.628 -8.377,10.704 -10.25,10.704C-12.911,10.704 -15.362,10.431 -17.596,9.886C-19.834,9.343 -21.769,8.482 -23.402,7.303C-25.035,6.124 -26.306,4.566 -27.212,2.631C-28.119,0.696 -28.573,-1.633 -28.573,-4.353C-28.573,-6.952 -28.044,-9.192 -26.986,-11.065C-25.928,-12.941 -24.492,-14.452 -22.676,-15.602C-20.862,-16.749 -18.746,-17.597 -16.328,-18.142C-13.91,-18.687 -11.37,-18.96 -8.706,-18.96C-7.862,-18.96 -6.985,-18.914 -6.078,-18.822C-5.171,-18.733 -4.307,-18.609 -3.492,-18.46C-2.675,-18.306 -1.965,-18.171 -1.36,-18.05C-0.756,-17.929 -0.332,-17.839 -0.089,-17.78L-0.089,-20.136C-0.089,-21.529 -0.243,-22.905 -0.545,-24.265C-0.847,-25.626 -1.393,-26.835 -2.175,-27.893C-2.963,-28.951 -4.035,-29.798 -5.398,-30.432C-6.758,-31.067 -8.526,-31.385 -10.704,-31.385C-13.486,-31.385 -15.918,-31.188 -18.004,-30.797C-18.372,-30.727 -18.724,-30.657 -19.059,-30.587C-21.05,-30.168 -22.957,-31.536 -23.245,-33.551C-23.507,-35.383 -22.329,-37.098 -20.523,-37.505C-19.839,-37.659 -19.075,-37.811 -18.231,-37.962C-15.691,-38.415 -12.941,-38.642 -9.978,-38.642" style="fill:rgb(188,188,188);fill-rule:nonzero;"/>
        </g>
    </g>
</svg>
